<svg width="80" height="24" viewBox="0 0 80 24" fill="none" xmlns="http://www.w3.org/2000/svg">
<path d="M0 23.6517H3.0548L5.27037 17.1379H15.9454L18.1609 23.6517H21.2157L12.9241 1.01016H8.29159L0 23.6517ZM5.87461 14.9782L10.6079 2.15965L15.3411 14.9782H5.87461Z" fill="#040915"/>
<path d="M22.6946 23.6517H25.6487C25.4137 22.5022 25.2459 21.3875 25.2459 20.238V0.348331C25.2459 0.139333 25.078 0 24.8766 0L22.5939 0.104499C22.4261 0.104499 22.2918 0.278665 22.2918 0.452831V20.238C22.2918 21.3875 22.4596 22.5022 22.6946 23.6517Z" fill="#040915"/>
<path d="M34.5175 24C40.7614 24 40.3922 13.3411 40.3922 15.6401V21.3875L40.5264 23.2685C40.5264 23.4775 40.7278 23.6517 40.9293 23.6168L43.1448 23.3382C43.3127 23.3033 43.4469 23.1292 43.4469 22.955L43.3127 21.4224V6.23513H40.3922C40.3922 15.7446 39.1501 21.8752 34.6518 21.8752C31.5634 21.8752 30.4557 19.611 30.4557 16.5109V6.23513H27.5351V16.6502C27.5351 20.865 29.4486 24 34.5175 24Z" fill="#040915"/>
<path d="M54.0349 24C57.5261 24 59.9431 22.5719 61.6551 19.7852C61.7894 19.611 61.7222 19.402 61.5208 19.2975L59.7081 18.357C59.5402 18.2525 59.3724 18.3222 59.2717 18.4964C57.8282 20.9695 56.2505 21.91 54.0349 21.91C50.5101 21.91 47.791 18.7054 47.791 14.9086C47.791 10.9028 50.7787 8.04645 53.7999 8.04645C55.5791 8.04645 57.7275 8.77794 59.1374 10.8679C59.2045 11.0073 59.3724 11.0769 59.5067 11.0073L61.4873 10.2061C61.6887 10.1364 61.7894 9.85777 61.6551 9.64877C60.1109 7.41945 57.224 5.88679 53.867 5.88679C48.8317 5.88679 44.8705 9.75327 44.8705 14.9782C44.8705 20.0639 48.5631 24 54.0349 24Z" fill="#040915"/>
<path d="M71.4232 24C76.3243 24 78.6742 21.283 79.6141 18.8099C79.6812 18.6705 79.4127 18.5312 79.1441 18.5312H76.8279C76.6936 18.5312 76.5593 18.6009 76.5257 18.7402C75.9886 20.2032 74.6459 21.91 71.4232 21.91C68.0999 21.91 65.7836 19.0885 65.6157 15.3614H79.9834C80.2519 10.7286 77.2643 5.88679 71.4232 5.88679C66.0186 5.88679 62.7959 9.92743 62.7959 14.8389C62.7959 19.8549 66.1864 24 71.4232 24ZM76.9957 13.2366H65.7836C65.8171 10.7286 68.0327 8.01161 71.4232 8.01161C74.2095 8.01161 77.0964 10.6938 76.9957 13.2366Z" fill="#040915"/>
<path fill-rule="evenodd" clip-rule="evenodd" d="M0 23.6567L8.37704 0.995684H13.2205L21.5976 23.6567H18.192L15.988 17.2374H5.60956L3.40551 23.6567H0ZM5.48904 17.0635H16.1085L18.3126 23.4828H21.3515L13.103 1.1696H8.49455L0.246087 23.4828H3.285L5.48904 17.0635ZM22.6848 23.6567L22.6563 23.5187C22.4214 22.3806 22.2519 21.2688 22.2519 20.1187V0.620347C22.2519 0.490046 22.3017 0.364534 22.3808 0.270775C22.4594 0.177486 22.5772 0.104613 22.7182 0.103176L24.9933 0C25.2664 0 25.5307 0.195036 25.5307 0.517363V20.1187C25.5307 21.2342 25.6951 22.3194 25.9278 23.4469L25.9711 23.6567H22.6848ZM22.7225 0.277066C22.5555 0.277066 22.4219 0.448708 22.4219 0.620347V20.1187C22.4219 21.2515 22.5889 22.35 22.8227 23.4828H25.7614C25.7494 23.4248 25.7376 23.3668 25.726 23.3089C25.5109 22.2373 25.3606 21.1934 25.3606 20.1187V0.517363C25.3606 0.311396 25.1937 0.174083 24.9933 0.174083L22.7225 0.277066ZM40.2581 21.2579V17.8782C40.187 18.2082 40.1013 18.5543 39.9983 18.9069C39.6523 20.0909 39.1066 21.3606 38.2438 22.3368C37.3766 23.318 36.1908 24 34.5841 24C32.0278 24 30.2389 23.2156 29.0922 21.8767C27.949 20.542 27.468 18.6838 27.468 16.5829V6.14489H30.7134V16.4456C30.7134 17.9567 30.9868 19.2358 31.6165 20.1331C32.2391 21.0201 33.227 21.5582 34.7177 21.5582C35.7946 21.5582 36.669 21.1964 37.3816 20.5146C38.0984 19.8288 38.6604 18.8105 39.0895 17.4851C39.9486 14.8317 40.2581 11.0025 40.2581 6.3188V6.14489H43.5035V21.278L43.6371 22.7884V22.7963C43.6371 23.0488 43.4482 23.2933 43.2 23.3444L43.1936 23.3457L40.9864 23.6207C40.6879 23.6691 40.3961 23.4229 40.3917 23.1123L40.2581 21.2579ZM40.5617 23.1052C40.5617 23.3112 40.7621 23.4828 40.9624 23.4485L43.1665 23.1739C43.3335 23.1395 43.467 22.9679 43.467 22.7963L43.3335 21.2858V6.3188H40.4281C40.4281 15.6904 39.1925 21.7321 34.7177 21.7321C31.6454 21.7321 30.5433 19.5008 30.5433 16.4456V6.3188H27.638V16.5829C27.638 20.7366 29.5415 23.8261 34.5841 23.8261C38.5966 23.8261 39.8638 19.4425 40.2581 16.9497C40.3507 16.3642 40.3952 15.883 40.4157 15.5874C40.4211 15.5096 40.4249 15.4446 40.4275 15.394C40.4285 15.3726 40.4294 15.3538 40.4301 15.3377C40.4298 15.3536 40.4295 15.3722 40.4292 15.3938C40.4286 15.443 40.4281 15.5072 40.4281 15.5874V21.2515L40.5617 23.1052ZM61.5805 9.68295C60.0443 7.48595 57.1724 5.97552 53.8329 5.97552C48.8237 5.97552 44.8832 9.78593 44.8832 14.9351C44.8832 19.947 48.5566 23.8261 53.9999 23.8261C57.4729 23.8261 59.8774 22.4186 61.5805 19.6724C61.7141 19.5008 61.6473 19.2948 61.4469 19.1918L59.6436 18.265C59.4766 18.162 59.3096 18.2306 59.2095 18.4023C57.7735 20.8396 56.2039 21.7664 53.9999 21.7664C50.4935 21.7664 47.7885 18.6082 47.7885 14.8665C47.7885 10.9188 50.7606 8.10386 53.7661 8.10386C55.5361 8.10386 57.6733 8.82475 59.0759 10.8844C59.1427 11.0217 59.3096 11.0904 59.4432 11.0217L61.4135 10.2322C61.6139 10.1635 61.7141 9.88892 61.5805 9.68295ZM61.472 10.3955C61.7791 10.2869 61.9144 9.88326 61.7222 9.58682L61.7188 9.58179C60.1468 7.33353 57.2202 5.80161 53.8329 5.80161C48.735 5.80161 44.7131 9.68471 44.7131 14.9351C44.7131 20.047 48.4665 24 53.9999 24C55.7594 24 57.2578 23.6433 58.5352 22.9318C59.8107 22.2215 60.8562 21.1628 61.7196 19.7727C61.8132 19.6479 61.8433 19.4986 61.8019 19.3566C61.7608 19.2158 61.6563 19.1048 61.5233 19.0364L59.7253 18.1123C59.6047 18.0401 59.472 18.023 59.3475 18.0657C59.2251 18.1076 59.1293 18.2005 59.0638 18.3125C58.3546 19.5162 57.6204 20.3332 56.8032 20.8504C55.988 21.3665 55.0771 21.5925 53.9999 21.5925C50.6027 21.5925 47.9586 18.5286 47.9586 14.8665C47.9586 11.0073 50.8617 8.27777 53.7661 8.27777C55.4913 8.27777 57.5662 8.97896 58.9301 10.9747C59.0362 11.1763 59.2896 11.2896 59.5117 11.1811L61.472 10.3955ZM79.8134 15.3127H65.5205C65.5232 15.3709 65.5263 15.4289 65.5301 15.4867C65.7608 19.0733 68.0441 21.7664 71.2978 21.7664C74.5037 21.7664 75.8394 20.0843 76.3738 18.6426C76.4072 18.5053 76.5407 18.4366 76.6743 18.4366H78.9785C79.2457 18.4366 79.5128 18.5739 79.4461 18.7112C78.511 21.1485 76.1734 23.8261 71.2978 23.8261C66.0882 23.8261 62.7154 19.7411 62.7154 14.7978C62.7154 9.95757 65.9213 5.97552 71.2978 5.97552C77.1084 5.97552 80.0806 10.7471 79.8134 15.3127ZM79.6022 18.7803C79.1247 20.0225 78.289 21.328 76.9496 22.3233C75.6068 23.3212 73.7676 24 71.2978 24C65.9833 24 62.5453 19.8254 62.5453 14.7978C62.5453 12.3386 63.36 10.0888 64.8666 8.45236C66.3746 6.81438 68.5662 5.80161 71.2978 5.80161C74.2528 5.80161 76.4966 7.01681 77.9654 8.82073C79.4314 10.6212 80.1191 13 79.9831 15.3231L79.9736 15.4867H65.7005C65.9307 19.001 68.1601 21.5925 71.2978 21.5925C72.8703 21.5925 73.9691 21.1805 74.7371 20.6049C75.5031 20.0307 75.9527 19.2842 76.2116 18.5893C76.2751 18.3538 76.4991 18.2627 76.6743 18.2627H78.9785C79.1367 18.2627 79.2991 18.3025 79.4193 18.3699C79.4783 18.403 79.5414 18.4507 79.5826 18.5177C79.6276 18.5906 79.6445 18.686 79.6022 18.7803ZM6.09014 14.9351H15.5074L10.7988 2.30242L6.09014 14.9351ZM6.33695 14.7612H15.2606L10.7988 2.79067L6.33695 14.7612ZM76.6734 13.0448C76.6563 11.9118 76.0134 10.7417 75.0324 9.83332C74.005 8.88203 72.6332 8.24344 71.2978 8.24344C68.0978 8.24344 65.9954 10.7188 65.8637 13.0448H76.6734ZM76.8413 13.2187C76.9415 10.7128 74.0695 8.06953 71.2978 8.06953C68.0039 8.06953 65.8247 10.6232 65.6934 13.0448C65.6902 13.1029 65.6883 13.1609 65.6875 13.2187H76.8413Z" fill="#040915"/>
</svg>
