<svg width="16" height="16" viewBox="0 0 16 16" fill="none" xmlns="http://www.w3.org/2000/svg">
<path d="M15.4698 11.7304V13.9885C15.4707 14.1981 15.4277 14.4056 15.3437 14.5977C15.2598 14.7898 15.1366 14.9622 14.9821 15.1039C14.8277 15.2456 14.6453 15.3535 14.4467 15.4207C14.2481 15.4878 14.0377 15.5128 13.8289 15.4939C11.5127 15.2422 9.28788 14.4508 7.33311 13.1831C5.51446 12.0274 3.97255 10.4855 2.8169 8.66689C1.54482 6.70324 0.753178 4.46756 0.506109 2.14096C0.4873 1.93282 0.512037 1.72303 0.578745 1.52497C0.645454 1.32691 0.752673 1.1449 0.893575 0.990549C1.03448 0.836194 1.20598 0.712869 1.39715 0.628425C1.58833 0.543982 1.79499 0.50027 2.00399 0.500073H4.26209C4.62738 0.496478 4.98152 0.625833 5.25849 0.864029C5.53546 1.10222 5.71637 1.43301 5.76749 1.79472C5.8628 2.51736 6.03956 3.22691 6.29439 3.90981C6.39566 4.17922 6.41757 4.47202 6.35754 4.7535C6.29751 5.03498 6.15804 5.29336 5.95567 5.49801L4.99974 6.45394C6.07125 8.33837 7.63153 9.89864 9.51595 10.9702L10.4719 10.0142C10.6765 9.81185 10.9349 9.67238 11.2164 9.61235C11.4979 9.55232 11.7907 9.57424 12.0601 9.67551C12.743 9.93033 13.4525 10.1071 14.1752 10.2024C14.5408 10.254 14.8747 10.4381 15.1134 10.7199C15.3521 11.0016 15.479 11.3612 15.4698 11.7304Z" stroke="#040915" stroke-linecap="round" stroke-linejoin="round"/>
</svg>
