<svg width="14" height="12" viewBox="0 0 14 12" fill="none" xmlns="http://www.w3.org/2000/svg">
<path d="M12.0747 1.88407C11.7815 1.6038 11.4333 1.38146 11.0502 1.22977C10.667 1.07808 10.2563 1 9.84153 1C9.42676 1 9.01606 1.07808 8.63289 1.22977C8.24972 1.38146 7.90158 1.6038 7.60837 1.88407L6.99985 2.46547L6.39132 1.88407C5.79905 1.3182 4.99576 1.00029 4.15816 1.00029C3.32057 1.00029 2.51728 1.3182 1.92501 1.88407C1.33273 2.44995 1 3.21744 1 4.0177C1 4.81797 1.33273 5.58546 1.92501 6.15134L2.53353 6.73274L6.99985 11L11.4662 6.73274L12.0747 6.15134C12.368 5.87119 12.6007 5.53857 12.7595 5.17247C12.9183 4.80638 13 4.41398 13 4.0177C13 3.62143 12.9183 3.22903 12.7595 2.86293C12.6007 2.49684 12.368 2.16422 12.0747 1.88407V1.88407Z" fill="#F1F0EF" stroke="#040915" stroke-linecap="round" stroke-linejoin="round"/>
</svg>
