<svg width="10" height="10" viewBox="0 0 10 10" fill="none" xmlns="http://www.w3.org/2000/svg">
<path d="M4.16699 5.41667C4.34593 5.65589 4.57422 5.85383 4.83639 5.99706C5.09855 6.1403 5.38845 6.22547 5.68643 6.24681C5.98441 6.26815 6.28349 6.22516 6.56339 6.12075C6.84329 6.01634 7.09746 5.85295 7.30866 5.64167L8.55866 4.39167C8.93816 3.99875 9.14814 3.4725 9.1434 2.92625C9.13865 2.38001 8.91955 1.85748 8.53328 1.47122C8.14701 1.08495 7.62449 0.865848 7.07824 0.861102C6.532 0.856355 6.00575 1.06634 5.61283 1.44584L4.89616 2.15834" stroke="#040915" stroke-linecap="round" stroke-linejoin="round"/>
<path d="M5.83293 4.58333C5.65399 4.34411 5.4257 4.14617 5.16353 4.00293C4.90137 3.8597 4.61147 3.77453 4.31349 3.75319C4.01551 3.73185 3.71643 3.77484 3.43653 3.87925C3.15663 3.98366 2.90246 4.14705 2.69126 4.35833L1.44126 5.60833C1.06177 6.00125 0.851777 6.5275 0.856524 7.07374C0.861271 7.61999 1.08037 8.14251 1.46664 8.52878C1.85291 8.91505 2.37543 9.13415 2.92168 9.1389C3.46792 9.14364 3.99417 8.93365 4.38709 8.55416L5.09959 7.84166" stroke="#040915" stroke-linecap="round" stroke-linejoin="round"/>
</svg>
