<svg width="26" height="26" viewBox="0 0 26 26" fill="none" xmlns="http://www.w3.org/2000/svg">
<path fill-rule="evenodd" clip-rule="evenodd" d="M2 10.1429C2 5.6457 5.6457 2 10.1429 2C14.6401 2 18.2858 5.6457 18.2858 10.1429C18.2858 14.6401 14.6401 18.2858 10.1429 18.2858C5.6457 18.2858 2 14.6401 2 10.1429ZM10.1429 0C4.54113 0 0 4.54113 0 10.1429C0 15.7447 4.54113 20.2858 10.1429 20.2858C12.5835 20.2858 14.8227 19.4238 16.5728 17.9877C16.5745 17.9895 16.5763 17.9912 16.578 17.993L24.2923 25.7073C24.6829 26.0978 25.316 26.0978 25.7065 25.7073C26.0971 25.3168 26.0971 24.6836 25.7065 24.2931L17.9923 16.5788C17.9905 16.577 17.9888 16.5753 17.9871 16.5736C19.4236 14.8234 20.2858 12.5838 20.2858 10.1429C20.2858 4.54113 15.7447 0 10.1429 0Z" fill="#F1F0EF"/>
</svg>
