<svg width="14" height="12" viewBox="0 0 14 12" fill="none" xmlns="http://www.w3.org/2000/svg">
<path d="M13.2606 1.0056C12.7269 1.38205 12.136 1.66997 11.5107 1.85827C11.175 1.47235 10.729 1.19882 10.2328 1.07467C9.73663 0.950521 9.21431 0.981749 8.73647 1.16413C8.25864 1.34651 7.84834 1.67124 7.56107 2.09441C7.27381 2.51757 7.12344 3.01876 7.13029 3.53017V4.08747C6.15091 4.11286 5.18045 3.89565 4.30535 3.45518C3.43024 3.01471 2.67765 2.36465 2.1146 1.5629C2.1146 1.5629 -0.114598 6.5786 4.90109 8.80779C3.75335 9.58688 2.38609 9.97753 1 9.92239C6.01569 12.7089 12.146 9.92239 12.146 3.51345C12.1455 3.35822 12.1305 3.20337 12.1014 3.05089C12.6702 2.48997 13.0716 1.78176 13.2606 1.0056V1.0056Z" fill="#F1F0EF" stroke="#040915" stroke-linecap="round" stroke-linejoin="round"/>
</svg>
